<svg xmlns="http://www.w3.org/2000/svg" width="32" height="32" viewBox="0 0 32 32"><path fill="currentColor" d="M30.47 19.81h-1.52v1.53h1.52v1.52H32v-6.09h-1.53zm-1.52 3.05h1.52v3.05h-1.52Zm0-9.14h1.52v3.05h-1.52Zm-1.52 12.19h1.52v1.52h-1.52Zm-1.53-7.62h3.05v1.52H25.9Zm1.53-15.24h1.52v10.67h-1.52ZM25.9 27.43h1.53v1.53H25.9Zm0-24.38h1.53V0h-3.05v1.53h1.52zm-6.09 13.72h6.09v1.52h-6.09Zm1.52 12.19h4.57v1.52h-4.57ZM25.9 9.15V4.58h-1.52V6.1h-1.52v1.52h-1.53v1.53zm-3.04-7.62h1.52v1.52h-1.52Zm-1.53 12.19h1.53v1.52h-1.53Zm0-10.67h1.53v1.53h-1.53Zm-1.52 1.53h1.52V6.1h-1.52Zm-9.15 25.9h10.67V32H10.66Zm7.62-9.14h1.53v1.52h-1.53Zm-6.09-6.1v1.53h1.52v1.52h1.53v1.52h1.52v-1.52h1.52v-1.52h1.53v-1.53zm3.05 7.62h3.04v1.52h-3.04ZM12.19 6.1h7.62v1.52h-7.62Zm-1.53-1.52h1.53V6.1h-1.53ZM6.09 28.96h4.57v1.52H6.09Zm0-12.19h6.1v1.52h-6.1Zm3.05-3.05h1.52v1.52H9.14Zm0-10.67h1.52v1.53H9.14Zm1.52 6.1V7.62H9.14V6.1H7.62V4.58H6.09v4.57zM7.62 1.53h1.52v1.52H7.62Zm-3.05 25.9h1.52v1.53H4.57Zm1.52-25.9h1.53V0H4.57v3.05h1.52zM3.05 25.91h1.52v1.52H3.05Zm0-7.62h3.04v1.52H3.05Zm0-15.24h1.52v10.67H3.05ZM1.52 22.86h1.53v3.05H1.52Zm1.53-1.52v-1.53H1.52v-3.04H0v6.09h1.52v-1.52zm-1.53-7.62h1.53v3.05H1.52Z"/></svg>
